Coordinates
version=1
nRows=9
nColumns=63
inDegrees=yes

Units are S.I. units (second, meters, Newtons, ...)
If the header above contains a line with 'inDegrees', this indicates whether rotational values are in degrees (yes) or radians (no).

endheader
time	pelvis_tilt	pelvis_list	pelvis_rotation	pelvis_tx	pelvis_ty	pelvis_tz	hip_flexion_r	hip_adduction_r	hip_rotation_r	knee_angle_r	knee_angle_r_beta	ankle_angle_r	subtalar_angle_r	mtp_angle_r	hip_flexion_l	hip_adduction_l	hip_rotation_l	knee_angle_l	knee_angle_l_beta	ankle_angle_l	subtalar_angle_l	mtp_angle_l	L5_S1_Flex_Ext	L5_S1_Lat_Bending	L5_S1_axial_rotation	L4_L5_Flex_Ext	L4_L5_Lat_Bending	L4_L5_axial_rotation	L3_L4_Flex_Ext	L3_L4_Lat_Bending	L3_L4_axial_rotation	L2_L3_Flex_Ext	L2_L3_Lat_Bending	L2_L3_axial_rotation	L1_L2_Flex_Ext	L1_L2_Lat_Bending	L1_L2_axial_rotation	L1_T12_Flex_Ext	L1_T12_Lat_Bending	L1_T12_axial_rotation	Abs_r3	Abs_r2	Abs_r1	Abs_t1	Abs_t2	neck_flexion	neck_bending	neck_rotation	arm_flex_r	arm_add_r	arm_rot_r	elbow_flex_r	pro_sup_r	wrist_flex_r	wrist_dev_r	arm_flex_l	arm_add_l	arm_rot_l	elbow_flex_l	pro_sup_l	wrist_flex_l	wrist_dev_l
      2.71666667	      4.28902051	     -3.59929249	     85.29395785	      0.32868154	      1.03746993	      0.41742423	      1.10648687	     -2.01233999	     -3.44599025	      9.78516236	      0.17078330	     24.54070612	     11.89115559	      0.00000000	     -0.81622120	      0.40495671	     -4.24212384	      5.90435792	      0.10305049	     21.38102358	     -6.69275480	      0.00000000	      0.05465918	      0.04660110	      0.73012186	      0.10150757	      0.06197946	      0.77575447	      0.08979957	      0.11330591	      0.77575447	      0.06246998	      0.11330591	      0.63885662	      0.05075652	      0.09502896	      0.59322401	      0.03123226	      0.07218510	      0.54759139	      0.39042509	      0.52716094	      4.06071873	      0.00000000	      0.00000000	     26.56615381	      4.98572412	      1.32887363	     -5.73077406	    -16.41637518	     26.67122823	     43.54502224	     79.92092144	      0.51894104	      4.04624650	    -14.94703493	    -11.32192563	    -23.13611000	    133.56588599	     84.14493937	     -9.16234975	     -0.72816335
      2.73333333	      4.50894552	     -3.44461378	     84.99102361	      0.32872641	      1.03829445	      0.41635931	      0.82759875	     -1.77009363	     -2.72449806	      9.59893083	      0.16753295	     24.31521207	     11.28338489	      0.00000000	     -1.13036732	      0.24422793	     -3.87007537	      5.64746097	      0.09856679	     21.51902395	     -6.95344246	      0.00000000	      0.04436080	      0.08322457	      0.78539135	      0.08238245	      0.11068867	      0.83447831	      0.07288036	      0.20235221	      0.83447831	      0.05069996	      0.20235221	      0.68721743	      0.04119344	      0.16971153	      0.63813047	      0.02534776	      0.12891485	      0.58904351	      0.31686477	      0.94145293	      4.36811105	      0.00000000	      0.00000000	     26.44205570	      4.69744491	      1.69543758	     -5.78718823	    -16.93822259	     26.55788972	     44.56957114	     79.46522492	      1.43981046	      4.63173094	    -13.46355859	    -11.78732245	    -22.91344177	    133.53059059	     81.19522264	     -8.55736232	     -2.03224007
      2.75000000	      4.54390804	     -3.34325992	     84.54009496	      0.32909649	      1.03896604	      0.41546221	      0.68524503	     -1.72071239	     -1.90402359	      9.51930688	      0.16614325	     24.15044570	     10.57607408	      0.00000000	     -1.37696282	      0.27240184	     -3.64110415	      5.39228273	      0.09411309	     21.77545146	     -7.20716295	      0.00000000	      0.04218652	      0.10112031	      0.87343615	      0.07834458	      0.13449001	      0.92802590	      0.06930823	      0.24586391	      0.92802590	      0.04821497	      0.24586391	      0.76425663	      0.03917440	      0.20620453	      0.70966687	      0.02410537	      0.15663536	      0.65507711	      0.30133406	      1.14389314	      4.85778981	      0.00000000	      0.00000000	     26.27894937	      4.47131208	      2.11946487	     -5.87229667	    -17.32239556	     26.22291838	     45.64699603	     78.89227199	      2.22019914	      5.72291231	    -12.05607616	    -12.41732708	    -22.28973540	    133.15913101	     76.79474857	     -8.31598994	     -2.75326698
      2.76666667	      4.45813972	     -3.25304272	     84.27917156	      0.32935316	      1.03955019	      0.41479688	      0.57081388	     -1.83414150	     -1.77831100	      9.48292566	      0.16550828	     24.12919930	     10.46954349	      0.00000000	     -1.54018152	      0.38790768	     -3.37593252	      5.23593710	      0.09138434	     22.19307025	     -7.12212167	      0.00000000	      0.04340216	      0.10434788	      0.91369227	      0.08060215	      0.13878268	      0.97079804	      0.07130541	      0.25371144	      0.97079804	      0.04960433	      0.25371144	      0.79948074	      0.04030324	      0.21278620	      0.74237497	      0.02479999	      0.16163487	      0.68526920	      0.31001728	      1.18040410	      5.08168229	      0.00000000	      0.00000000	     26.03324098	      4.34280681	      2.56668327	     -5.69091928	    -17.65987891	     26.43100917	     46.44948288	     78.83601255	      2.60444118	      6.11911298	    -10.87629161	    -12.93921737	    -22.05300868	    132.61376435	     75.81695433	     -8.38262583	     -2.49435405
      2.78333333	      4.51706355	     -3.10713886	     83.46797168	      0.33010108	      1.04002412	      0.41417112	      0.47166351	     -1.79798720	     -0.92531465	      9.47953049	      0.16544902	     24.08819804	     10.25126078	      0.00000000	     -1.88937180	      0.41409362	     -3.80554142	      4.97431732	      0.08681822	     22.53454927	     -7.40009243	      0.00000000	      0.03323496	      0.13370926	      1.07382241	      0.06172064	      0.17783331	      1.14093631	      0.05460172	      0.32510069	      1.14093631	      0.03798424	      0.32510069	      0.93959461	      0.03086198	      0.27265992	      0.87248071	      0.01899046	      0.20711564	      0.80536681	      0.23739399	      1.51254586	      5.97227811	      0.00000000	      0.00000000	     25.82758266	      4.32801530	      3.32293323	     -5.87466370	    -17.93607076	     25.55698237	     47.82947643	     77.66924130	      3.13934056	      8.44710048	     -9.91608825	    -13.29452094	    -21.36208098	    132.13807654	     70.83048684	     -9.11036764	     -1.58470891
      2.80000000	      4.44711181	     -2.99500609	     83.07562402	      0.33065944	      1.04032119	      0.41377629	      0.39399482	     -1.88372721	     -0.62129334	      9.45652098	      0.16504743	     24.25638860	     10.25880696	      0.00000000	     -2.08815659	      0.51081211	     -3.98320896	      4.89780180	      0.08548277	     22.85265812	     -7.51393872	      0.00000000	      0.02606643	      0.14038972	      1.14092099	      0.04840798	      0.18671833	      1.21222855	      0.04282455	      0.34134357	      1.21222855	      0.02979133	      0.34134357	      0.99830586	      0.02420529	      0.28628272	      0.92699830	      0.01489436	      0.21746368	      0.85569074	      0.18618994	      1.58811661	      6.34546026	      0.00000000	      0.00000000	     25.63950193	      4.40862871	      3.97357198	     -5.78665784	    -18.08526667	     25.29301948	     48.91216329	     77.27278831	      3.15689217	      9.26991647	     -9.16317950	    -13.62629126	    -21.24669908	    131.54565726	     69.87072732	     -9.67574727	     -0.01268650
      2.81666667	      4.35133230	     -2.99508342	     82.60568525	      0.33149941	      1.04031601	      0.41360800	      0.47150192	     -1.96443955	     -0.26321262	      9.43529302	      0.16467693	     24.55917146	     10.48450120	      0.00000000	     -2.16671455	      0.60840470	     -4.40198564	      4.86502799	      0.08491076	     22.98595779	     -7.70426284	      0.00000000	      0.03110426	      0.14076938	      1.21030099	      0.05776373	      0.18722327	      1.28594480	      0.05110119	      0.34226666	      1.28594480	      0.03554906	      0.34226666	      1.05901336	      0.02888342	      0.28705691	      0.98336955	      0.01777298	      0.21805176	      0.90772574	      0.22217464	      1.59241134	      6.73133100	      0.00000000	      0.00000000	     25.51382302	      4.60083694	      4.62633324	     -5.84681438	    -18.12894486	     24.75919973	     50.37433843	     76.59436279	      2.96306455	     10.29895128	     -8.64212853	    -13.89922477	    -21.29508316	    130.98592664	     70.25777593	    -10.24845846	      2.26380681
      2.83333333	      4.25496674	     -3.02463117	     82.31235272	      0.33214702	      1.04015719	      0.41376446	      0.61595455	     -2.03755466	      0.00863938	      9.47053232	      0.16529197	     24.93753420	     10.72591480	      0.00000000	     -2.14298478	      0.69025122	     -4.94251030	      4.93315102	      0.08609973	     22.96747151	     -7.89806045	      0.00000000	      0.03593795	      0.13723029	      1.25275842	      0.06674036	      0.18251628	      1.33105582	      0.05904245	      0.33366172	      1.33105582	      0.04107348	      0.33366172	      1.09616362	      0.03337198	      0.27984000	      1.01786622	      0.02053494	      0.21256972	      0.93956882	      0.25670116	      1.55237646	      6.96746651	      0.00000000	      0.00000000	     25.49247629	      4.91227260	      5.24218358	     -6.04392700	    -18.10264882	     24.05481755	     52.06150850	     75.95400688	      2.53072180	     11.08734896	     -8.26558978	    -14.06008972	    -21.15165150	    130.18858571	     71.96420467	    -10.63153927	      4.42480898
      2.85000000	      4.14272589	     -3.12380705	     82.14216662	      0.33272389	      1.03973235	      0.41425524	      0.82908768	     -2.10400165	      0.26307241	      9.48208585	      0.16549362	     25.42623807	     10.90791783	      0.00000000	     -1.99531562	      0.75691040	     -5.46036123	      5.03566868	      0.08788900	     22.76552385	     -7.97304043	      0.00000000	      0.04533898	      0.12531733	      1.27855278	      0.08419902	      0.16667206	      1.35846232	      0.07448741	      0.30469657	      1.35846232	      0.05181792	      0.30469657	      1.11873368	      0.04210178	      0.25554711	      1.03882413	      0.02590669	      0.19411655	      0.95891458	      0.32385181	      1.41761475	      7.11092697	      0.00000000	      0.00000000	     25.58566852	      5.12104304	      5.46597153	     -6.45756035	    -18.04093067	     23.19831550	     54.07488783	     75.56551850	      1.74181802	     11.81710520	     -8.18211837	    -14.12481010	    -20.78690928	    129.25811056	     74.52336504	    -10.82623625	      6.15304540
